<?xml version="1.0" encoding="utf-8"?>
<!-- Generator: Adobe Illustrator 24.2.1, SVG Export Plug-In . SVG Version: 6.00 Build 0)  -->
<svg version="1.1" id="Layer_1" xmlns="http://www.w3.org/2000/svg" xmlns:xlink="http://www.w3.org/1999/xlink" x="0px" y="0px"
	 viewBox="0 0 240 240" style="enable-background:new 0 0 240 240;" xml:space="preserve">
<style type="text/css">
	.st0{fill:#FFFFFF;}
</style>
<path d="M42,0C18.9,0,0,18.9,0,42v156c0,23.1,18.9,42,42,42h156c23.1,0,42-18.9,42-42V42c0-23.1-18.9-42-42-42H42z"/>
<path class="st0" d="M134,194c0,11,9,20,20,20h39c11,0,20-9,20-20V46c0-11-9-20-20-20h-39c-11,0-20,9-20,20V194z"/>
</svg>
